# xmcd
#
# Track frame offsets: 
#        150
#        18801
#        36076
#        48816
#        64563
#        81936
#        99588
#        114203
#        130709
#        149898
#
# Disc length: 2231 seconds
#
# Revision: 0
# Processed by: cddbd v1.5.2PL0 Copyright (c) Steve Scherf et al.
# Submitted via: ExactAudioCopy v0.95b4
#
DISCID=7b08b50a
DTITLE=Will Derryberry - Target of Your favor
DYEAR=1900
DGENRE=Blues
TTITLE0=A God like You
TTITLE1=Target of Your favor
TTITLE2=Under His wing
TTITLE3=More than a man
TTITLE4=Altar
TTITLE5=Time
TTITLE6=Flying Higher
TTITLE7=Out of the darkness
TTITLE8=Father smile
TTITLE9=Stand up
EXTD=
EXTT0=
EXTT1=
EXTT2=
EXTT3=
EXTT4=
EXTT5=
EXTT6=
EXTT7=
EXTT8=
EXTT9=
PLAYORDER=
